<svg width="175" height="56" viewBox="0 0 175 56" fill="none" xmlns="http://www.w3.org/2000/svg">
<g clip-path="url(#clip0_70_711)">
<path d="M158.027 24.1044C158.027 27.2696 155.65 30.2454 149.992 30.2454C146.248 30.2454 143.788 29.0551 141.902 26.7556L145.565 23.7797C146.986 25.3488 148.325 26.1604 150.375 26.1604C151.878 26.1604 152.698 25.5652 152.698 24.5643C152.698 23.6445 152.097 23.2116 150.32 22.7247C144.936 21.2367 142.34 19.83 142.34 15.9884C142.34 12.1469 145.811 10.0367 149.883 10.0367C153.436 10.0367 155.732 11.0647 157.536 13.2019L153.901 16.2048C152.725 14.8522 151.386 14.1218 149.856 14.1218C148.325 14.1218 147.724 14.6899 147.724 15.5556C147.724 16.3401 148.27 16.8271 150.074 17.314C156.114 18.9372 158.027 20.6416 158.027 24.1044V24.1044ZM135.151 20.1275C135.151 16.5565 134.14 14.4193 131.462 14.4193C128.783 14.4193 127.772 16.5836 127.772 20.1275C127.772 23.6715 128.783 25.8628 131.462 25.8628C134.14 25.8628 135.151 23.6986 135.151 20.1275ZM140.59 20.1275C140.59 26.7556 137.311 30.2454 131.462 30.2454C125.613 30.2454 122.333 26.7285 122.333 20.1275C122.333 13.5266 125.64 10.0097 131.462 10.0097C137.283 10.0097 140.59 13.5266 140.59 20.1275ZM115.227 16.9353C115.227 15.3662 114.325 14.744 112.248 14.744H109.952V19.1266H112.248C114.298 19.1266 115.227 18.5044 115.227 16.9353V16.9353ZM120.584 29.8937H114.626L111.319 23.0493H109.952V29.8667H104.568V10.3884H112.576C117.414 10.3884 120.502 12.228 120.502 16.8541C120.502 19.9382 118.835 21.399 116.84 22.4L120.584 29.8937V29.8937ZM102.272 23.8338C101.316 27.4589 99.266 30.2454 94.4831 30.2454C88.9622 30.2454 85.5458 26.7826 85.5458 20.1546C85.5458 13.5266 88.8529 10.0097 94.7017 10.0097C99.02 10.0097 101.48 12.5797 102.108 15.9614L97.1615 17.2058C96.7515 15.6097 95.9316 14.5546 94.3191 14.5546C92.1599 14.5546 90.9847 16.6106 90.9847 20.1546C90.9847 23.6986 92.1053 25.7275 94.2644 25.7275C95.7949 25.7275 96.6695 24.7266 97.3528 22.5353L102.272 23.8338V23.8338ZM77.6199 22.1836L75.898 16.0696L74.1215 22.1836H77.6199ZM85.5458 29.8937H79.8063L78.6858 25.971H73.0556L71.9077 29.8937H66.7968L73.1923 10.3884H79.0957L85.5458 29.8937ZM174.863 24.1044C174.863 27.2696 172.486 30.2454 166.828 30.2454C163.084 30.2454 160.624 29.0551 158.738 26.7556L162.4 23.7797C163.822 25.3488 165.161 26.1604 167.211 26.1604C168.714 26.1604 169.534 25.5652 169.534 24.5643C169.534 23.6445 168.933 23.2116 167.156 22.7247C161.772 21.2367 159.175 19.83 159.175 15.9884C159.175 12.1469 162.646 10.0367 166.719 10.0367C170.299 10.0367 172.568 11.0647 174.371 13.2019L170.736 16.2048C169.561 14.8522 168.222 14.1218 166.691 14.1218C165.161 14.1218 164.56 14.6899 164.56 15.5556C164.56 16.3401 165.134 16.8271 166.91 17.314C172.95 18.9372 174.863 20.6416 174.863 24.1044" fill="white"/>
<path d="M161.28 44.4212C160.761 45.2058 160.105 45.828 159.257 46.2609C158.437 46.6667 157.481 46.8831 156.442 46.8831C154.857 46.8831 153.573 46.4502 152.534 45.5575C151.523 44.6647 151.003 43.5555 151.003 42.1758C151.003 40.7961 151.523 39.6869 152.534 38.7942C153.545 37.9014 154.857 37.4415 156.442 37.4415C157.426 37.4415 158.328 37.6309 159.121 37.9826C159.913 38.3343 160.569 38.8483 161.061 39.5246L159.941 40.2821C159.585 39.7681 159.066 39.3894 158.465 39.1188C157.864 38.8483 157.18 38.713 156.442 38.713C155.294 38.713 154.338 39.0377 153.573 39.6869C152.835 40.3362 152.452 41.1478 152.452 42.1217C152.452 43.0956 152.835 43.9072 153.573 44.5565C154.338 45.2058 155.294 45.5304 156.415 45.5304C157.208 45.5304 157.918 45.3681 158.519 45.0705C159.121 44.7459 159.667 44.286 160.132 43.6096L161.28 44.4212V44.4212ZM144.116 37.685H145.537V46.6125H144.116V37.685ZM134.359 46.6125V38.9565H130.587V37.7121H139.552V38.9565H135.753V46.6125H134.359ZM117.66 45.4763L118.343 44.313C118.972 44.7188 119.628 45.0435 120.365 45.2599C121.103 45.5034 121.787 45.6116 122.47 45.6116C123.263 45.6116 123.919 45.4493 124.41 45.1246C124.902 44.8 125.148 44.3942 125.148 43.8802C125.148 43.3662 124.93 42.9874 124.465 42.7439C124.028 42.5005 123.317 42.3652 122.333 42.3381C120.693 42.3111 119.573 42.1217 118.972 41.77C118.37 41.4183 118.07 40.8232 118.07 40.0116C118.07 39.2541 118.398 38.6319 119.081 38.172C119.764 37.7121 120.666 37.4686 121.787 37.4686C122.552 37.4686 123.29 37.5768 124.028 37.7932C124.766 38.0096 125.449 38.3343 126.132 38.7401L125.422 39.9034C124.848 39.5246 124.246 39.2541 123.618 39.0377C122.962 38.8212 122.361 38.713 121.759 38.713C121.076 38.713 120.529 38.8212 120.12 39.0647C119.71 39.3082 119.491 39.6058 119.491 39.9845C119.491 40.3903 119.682 40.6609 120.12 40.8232C120.529 40.9855 121.267 41.0667 122.306 41.0667C123.727 41.0667 124.82 41.3101 125.558 41.77C126.296 42.257 126.652 42.9604 126.652 43.9072C126.652 44.7459 126.296 45.4493 125.531 45.9903C124.793 46.5314 123.837 46.829 122.661 46.829C121.787 46.829 120.939 46.7208 120.065 46.4773C119.163 46.2609 118.37 45.9092 117.66 45.4763V45.4763ZM110.745 37.685H112.166V46.6125H110.745V37.685ZM101.316 43.1497V41.8782H105.033V44.5565C104.514 45.314 103.83 45.9092 103.01 46.2879C102.19 46.6937 101.207 46.8831 100.113 46.8831C98.4461 46.8831 97.1069 46.4502 96.0683 45.5575C95.0024 44.6647 94.4831 43.5555 94.4831 42.1758C94.4831 40.7961 95.0024 39.6869 96.0683 38.7942C97.1342 37.9014 98.4734 37.4415 100.113 37.4415C101.152 37.4415 102.081 37.6309 102.874 37.9826C103.666 38.3343 104.35 38.8483 104.896 39.5517L103.803 40.3092C103.42 39.8222 102.901 39.4435 102.272 39.1459C101.616 38.8483 100.906 38.713 100.141 38.713C98.9107 38.713 97.8995 39.0377 97.1342 39.6869C96.3416 40.3362 95.959 41.1478 95.959 42.1217C95.959 43.0956 96.3416 43.9072 97.1342 44.5565C97.9268 45.2058 98.938 45.5304 100.168 45.5304C100.933 45.5304 101.644 45.3952 102.3 45.1246C102.956 44.8541 103.42 44.5024 103.666 44.0695V43.0956H101.316V43.1497ZM84.2887 46.8831C82.7035 46.8831 81.3642 46.4232 80.353 45.5304C79.3144 44.6377 78.8225 43.5014 78.8225 42.1488C78.8225 40.7961 79.3418 39.6599 80.353 38.7942C81.3916 37.9014 82.7035 37.4686 84.316 37.4686C85.9285 37.4686 87.2677 37.9014 88.279 38.7942C89.3175 39.6869 89.8095 40.7961 89.8095 42.1758C89.8095 43.5555 89.2902 44.6647 88.279 45.5575C87.2131 46.4502 85.9012 46.8831 84.2887 46.8831ZM84.2887 45.5845C85.4912 45.5845 86.4751 45.2599 87.2131 44.6377C87.9783 43.9884 88.361 43.1768 88.361 42.1758C88.361 41.1749 87.9783 40.3903 87.2131 39.741C86.4478 39.0918 85.4912 38.7671 84.2887 38.7671C83.0861 38.7671 82.1295 39.0918 81.3642 39.741C80.6263 40.3903 80.2437 41.2019 80.2437 42.1758C80.2437 43.1497 80.6263 43.9884 81.3642 44.6377C82.1295 45.2599 83.0861 45.5845 84.2887 45.5845ZM66.7422 46.6125V37.7391H68.1634V45.341H74.8321V46.6125H66.7422V46.6125ZM166.008 45.4763L166.691 44.313C167.32 44.7188 167.976 45.0435 168.714 45.2599C169.452 45.5034 170.135 45.6116 170.818 45.6116C171.611 45.6116 172.267 45.4493 172.759 45.1246C173.251 44.8 173.497 44.3942 173.497 43.8802C173.497 43.3662 173.278 42.9874 172.814 42.7439C172.376 42.5005 171.666 42.3652 170.682 42.3381C169.042 42.3111 167.921 42.1217 167.32 41.77C166.719 41.4183 166.418 40.8232 166.418 40.0116C166.418 39.2541 166.746 38.6319 167.429 38.172C168.113 37.7121 169.015 37.4686 170.135 37.4686C170.9 37.4686 171.638 37.5768 172.376 37.7932C173.114 38.0096 173.797 38.3343 174.481 38.7401L173.77 39.9034C173.224 39.5246 172.622 39.2541 171.966 39.0377C171.31 38.8212 170.709 38.713 170.108 38.713C169.425 38.713 168.878 38.8212 168.468 39.0647C168.058 39.3082 167.839 39.6058 167.839 39.9845C167.839 40.3903 168.058 40.6609 168.468 40.8232C168.878 40.9855 169.616 41.0667 170.654 41.0667C172.076 41.0667 173.169 41.3101 173.907 41.77C174.645 42.257 175 42.9604 175 43.9072C175 44.7459 174.617 45.4493 173.879 45.9903C173.142 46.5314 172.185 46.829 171.01 46.829C170.135 46.829 169.261 46.7208 168.413 46.4773C167.511 46.2609 166.746 45.9092 166.008 45.4763" fill="white"/>
<path d="M28.2875 56C43.9103 56 56.575 43.464 56.575 28C56.575 12.536 43.9103 0 28.2875 0C12.6648 0 0 12.536 0 28C0 43.464 12.6648 56 28.2875 56Z" fill="#C10230"/>
<path d="M52.2568 35.0879C50.9996 26.7826 28.3695 4.16618 28.2876 4.08502C28.2056 4.16618 5.57554 26.7826 4.31832 35.0879C3.88102 37.9285 4.59163 41.5807 5.38423 44.4212C10.1125 35.6019 28.2602 22.1024 28.2876 22.0754C28.3149 22.1024 46.49 35.629 51.1909 44.4212C51.9835 41.5807 52.6941 37.9285 52.2568 35.0879V35.0879Z" fill="white"/>
<path d="M28.2875 22.0483C28.2602 22.0754 10.1125 35.6019 5.38422 44.3942C10.5224 51.401 18.8857 55.9729 28.2875 55.9729C37.6894 55.9729 46.0527 51.401 51.1909 44.3942C46.4626 35.6019 28.3149 22.0754 28.2875 22.0483V22.0483Z" fill="#222222"/>
</g>
<defs>
<clipPath id="clip0_70_711">
<rect width="175" height="56" fill="white"/>
</clipPath>
</defs>
</svg>
